#!OML:ASF X:\für Bonn\!DataBase\2005_08_12_Daniel\c3d\Daniel.ASF
:FULLY-SPECIFIED
:DEGREES
184
root -4.07339 17.1008 -1.17491 24.8998 -87.9774 -32.8597
lowerback 25.1315 -2.63438 4.01423
upperback 1.2683 -2.65097 -1.3589
thorax -12.9176 -1.57156 -2.89771
lowerneck 5.43818 2.18645 -2.09235
upperneck 3.7412 2.71839 -0.0612411
head 0.224805 1.29649 0.282328
rclavicle 1.47846e-014 7.95139e-016
rhumerus 61.5418 -13.6017 -134.958
rradius 7.68051
rwrist 103.45
rhand -24.7931 9.49294
rfingers 7.12502
rthumb 1.71135 -20.4799
lclavicle 1.47846e-014 7.95139e-016
lhumerus 56.4733 2.88066 96.0305
lradius 10.0153
lwrist -71.8517
lhand -17.1002 1.4613
lfingers 7.12502
lthumb 9.13861 31.2433
rfemur -4.737 -4.81821 15.9956
rtibia 35.2835
rfoot 340.246 -4.44497
rtoes -7.30471
lfemur -550.567 185.762 -194.132
ltibia 41.3262
lfoot -24.2067 2.16712
ltoes -0.611996
185
root -4.10734 17.1422 -1.17465 24.6524 -88.0448 -32.4569
lowerback 24.5025 -2.58698 3.92678
upperback 1.10316 -2.62823 -1.3784
thorax -12.7597 -1.55315 -2.89095
lowerneck 5.41832 2.20834 -2.02011
upperneck 4.15757 2.74582 -0.0530913
head 0.354791 1.30406 0.275654
rclavicle -2.58172e-014 8.34896e-015
rhumerus 61.4217 -13.5693 -134.895
rradius 7.46468
rwrist 103.103
rhand -24.5055 9.28318
rfingers 7.12502
rthumb 1.98919 -20.6873
lclavicle -2.58172e-014 8.34896e-015
lhumerus 56.1852 3.02465 96.2117
lradius 10.2235
lwrist -71.7891
lhand -16.9565 1.45107
lfingers 7.12502
lthumb 9.27733 31.227
rfemur -3.54911 -3.47502 16.3441
rtibia 33.281
rfoot 339.473 -5.6063
rtoes -6.93603
lfemur -549.808 186.982 -194.488
ltibia 40.1592
lfoot -24.6017 3.47949
ltoes -0.751953
186
root -4.14103 17.1754 -1.17356 24.6936 -88.1075 -32.3632
lowerback 23.8918 -2.54893 3.85432
upperback 0.943307 -2.61115 -1.38642
thorax -12.604 -1.53803 -2.87712
lowerneck 5.55328 2.24221 -1.96083
upperneck 4.4221 2.7846 -0.0699189
head 0.414128 1.31878 0.260737
rclavicle -1.23992e-014 -5.56597e-015
rhumerus 61.2462 -13.5344 -134.809
rradius 7.31673
rwrist 102.693
rhand -24.2271 9.17709
rfingers 7.12502
rthumb 2.25802 -20.7907
lclavicle -1.23992e-014 -5.56597e-015
lhumerus 55.9532 3.21694 96.4763
lradius 10.3791
lwrist -71.7749
lhand -16.7238 1.50445
lfingers 7.12502
lthumb 9.50188 31.2702
rfemur -2.39456 -2.00929 16.7333
rtibia 31.3894
rfoot 338.606 -6.85868
rtoes -6.52944
lfemur -549.085 188.292 -194.852
ltibia 39.1174
lfoot -25.0754 4.80472
ltoes -0.744762
187
root -4.17401 17.2028 -1.17309 23.5225 -88.1869 -31.1397
lowerback 23.3592 -2.50093 3.74709
upperback 0.824971 -2.59291 -1.42219
thorax -12.4413 -1.52167 -2.87355
lowerneck 5.65713 2.25722 -1.85449
upperneck 4.69481 2.80214 -0.104089
head 0.482071 1.32362 0.233744
rclavicle 1.28713e-014 3.97569e-015
rhumerus 61.1268 -13.4998 -134.75
rradius 7.2038
rwrist 102.252
rhand -23.9042 9.07449
rfingers 7.12502
rthumb 2.56988 -20.8898
lclavicle 1.28713e-014 3.97569e-015
lhumerus 55.8003 3.3729 96.7442
lradius 10.4581
lwrist -71.6889
lhand -16.4622 1.49335
lfingers 7.12502
lthumb 9.75424 31.2475
rfemur -1.22453 -0.427411 17.1164
rtibia 29.6358
rfoot 337.704 -8.22853
rtoes -6.2848
lfemur -548.335 189.665 -195.285
ltibia 38.1965
lfoot -25.5966 6.15796
ltoes -0.691952
188
root -4.20628 17.2222 -1.17237 22.8499 -88.2696 -30.4848
lowerback 22.8711 -2.45711 3.651
upperback 0.746015 -2.57516 -1.44689
thorax -12.2564 -1.50565 -2.86271
lowerneck 5.88299 2.27821 -1.802
upperneck 4.82427 2.82196 -0.121423
head 0.486166 1.33056 0.217977
rclavicle 1.39149e-015 3.18055e-015
rhumerus 61.0179 -13.445 -134.677
rradius 7.10664
rwrist 101.781
rhand -23.6316 9.03217
rfingers 7.12502
rthumb 2.83317 -20.9288
lclavicle 1.39149e-015 3.18055e-015
lhumerus 55.6974 3.64474 97.1657
lradius 10.5292
lwrist -71.8327
lhand -16.1791 1.48309
lfingers 7.12502
lthumb 10.0274 31.2242
rfemur -0.0557529 1.23826 17.5512
rtibia 28.033
rfoot 336.796 -9.65819
rtoes -5.957
lfemur -547.559 191.079 -195.739
ltibia 37.3999
lfoot -26.1772 7.53252
ltoes -0.70847
